<?xml version="1.0"?>
<svg xmlns="http://www.w3.org/2000/svg" xmlns:xlink="http://www.w3.org/1999/xlink" version="1.1" id="Capa_1" x="0px" y="0px" viewBox="0 0 512.019 512.019" style="enable-background:new 0 0 512.019 512.019;" xml:space="preserve" width="512px" height="512px"><g><g>
	<g>
		<rect x="245.343" y="288.017" width="21.333" height="85.333" data-original="#000000" class="active-path" data-old_color="#000000" fill="#C0DDBD"/>
	</g>
</g><g>
	<g>
		<g>
			<path d="M506.591,140.049L261.258,1.382c-3.257-1.84-7.239-1.84-10.496,0L5.428,140.049c-1.694,0.956-3.095,2.356-4.05,4.05     c-2.894,5.131-1.081,11.637,4.05,14.531l245.333,138.667c1.599,0.911,3.408,1.389,5.248,1.387     c1.84,0.002,3.649-0.476,5.248-1.387L506.591,158.63c1.694-0.956,3.095-2.356,4.05-4.05     C513.535,149.449,511.722,142.943,506.591,140.049z M256.01,275.772L32.351,149.35L256.01,22.929L479.668,149.35L256.01,275.772z     " data-original="#000000" class="active-path" data-old_color="#000000" fill="#C0DDBD"/>
			<polygon points="256.01,298.684 256.01,298.684 256.009,298.684    " data-original="#000000" class="active-path" data-old_color="#000000" fill="#C0DDBD"/>
		</g>
	</g>
</g><g>
	<g>
		<path d="M416.01,192.017V399.11L255.54,489.372L96.01,399.132V192.017H74.676V405.35c0.002,3.844,2.072,7.389,5.419,9.28    l169.696,96c1.946,0.913,4.069,1.387,6.219,1.387c1.832,0.003,3.634-0.471,5.227-1.376l170.667-96    c3.358-1.887,5.437-5.439,5.44-9.291V192.017H416.01z" data-original="#000000" class="active-path" data-old_color="#000000" fill="#C0DDBD"/>
	</g>
</g><g>
	<g>
		<rect x="245.343" y="394.684" width="21.333" height="21.333" data-original="#000000" class="active-path" data-old_color="#000000" fill="#C0DDBD"/>
	</g>
</g><g>
	<g>
		<path d="M256.01,106.684c-23.564,0-42.667,19.102-42.667,42.667h21.333c0-11.782,9.551-21.333,21.333-21.333    c11.782,0,21.333,9.551,21.333,21.333h21.333C298.676,125.786,279.574,106.684,256.01,106.684z" data-original="#000000" class="active-path" data-old_color="#000000" fill="#C0DDBD"/>
	</g>
</g><g>
	<g>
		<path d="M490.676,149.35v106.667h-21.333c-5.891,0-10.667,4.776-10.667,10.667v85.333c0,5.891,4.776,10.667,10.667,10.667h32    c5.891,0,10.667-4.776,10.667-10.667V149.35H490.676z M490.676,341.35H480.01v-64h10.667V341.35z" data-original="#000000" class="active-path" data-old_color="#000000" fill="#C0DDBD"/>
	</g>
</g></g> </svg>
