<?xml version="1.0"?>
<svg xmlns="http://www.w3.org/2000/svg" id="Capa_1" enable-background="new 0 0 512 512" height="512px" viewBox="0 0 512 512" width="512px"><g><g><path d="m497 369h-18v-33c0-8.284-6.716-15-15-15s-15 6.716-15 15v33h-50v-354c0-8.284-6.716-15-15-15h-256c-8.284 0-15 6.716-15 15v354h-50v-33c0-8.284-6.716-15-15-15s-15 6.716-15 15v33h-18c-8.284 0-15 6.716-15 15v113c0 8.284 6.716 15 15 15h482c8.284 0 15-6.716 15-15v-113c0-8.284-6.716-15-15-15zm-467 30h83v83h-83zm185 83v-35h82v35zm112 0v-50c0-8.284-6.716-15-15-15h-112c-8.284 0-15 6.716-15 15v50h-42v-452h226v452zm155 0h-83v-83h83z" data-original="#000000" class="active-path" data-old_color="#000000" fill="#F9B186"/><path d="m320 65h-128c-8.284 0-15 6.716-15 15s6.716 15 15 15h128c8.284 0 15-6.716 15-15s-6.716-15-15-15z" data-original="#000000" class="active-path" data-old_color="#000000" fill="#F9B186"/><path d="m216 129h-16c-8.284 0-15 6.716-15 15s6.716 15 15 15h16c8.284 0 15-6.716 15-15s-6.716-15-15-15z" data-original="#000000" class="active-path" data-old_color="#000000" fill="#F9B186"/><path d="m312 129h-16c-8.284 0-15 6.716-15 15s6.716 15 15 15h16c8.284 0 15-6.716 15-15s-6.716-15-15-15z" data-original="#000000" class="active-path" data-old_color="#000000" fill="#F9B186"/><path d="m216 193h-16c-8.284 0-15 6.716-15 15s6.716 15 15 15h16c8.284 0 15-6.716 15-15s-6.716-15-15-15z" data-original="#000000" class="active-path" data-old_color="#000000" fill="#F9B186"/><path d="m312 193h-16c-8.284 0-15 6.716-15 15s6.716 15 15 15h16c8.284 0 15-6.716 15-15s-6.716-15-15-15z" data-original="#000000" class="active-path" data-old_color="#000000" fill="#F9B186"/><path d="m216 257h-16c-8.284 0-15 6.716-15 15s6.716 15 15 15h16c8.284 0 15-6.716 15-15s-6.716-15-15-15z" data-original="#000000" class="active-path" data-old_color="#000000" fill="#F9B186"/><path d="m312 257h-16c-8.284 0-15 6.716-15 15s6.716 15 15 15h16c8.284 0 15-6.716 15-15s-6.716-15-15-15z" data-original="#000000" class="active-path" data-old_color="#000000" fill="#F9B186"/><path d="m216 321h-16c-8.284 0-15 6.716-15 15s6.716 15 15 15h16c8.284 0 15-6.716 15-15s-6.716-15-15-15z" data-original="#000000" class="active-path" data-old_color="#000000" fill="#F9B186"/><path d="m312 321h-16c-8.284 0-15 6.716-15 15s6.716 15 15 15h16c8.284 0 15-6.716 15-15s-6.716-15-15-15z" data-original="#000000" class="active-path" data-old_color="#000000" fill="#F9B186"/></g></g> </svg>
